<?xml version="1.0" encoding="utf-8"?>
<!-- Generator: Adobe Illustrator 19.1.0, SVG Export Plug-In . SVG Version: 6.00 Build 0)  -->
<svg version="1.1" xmlns="http://www.w3.org/2000/svg" xmlns:xlink="http://www.w3.org/1999/xlink" x="0px" y="0px"
	 viewBox="0 0 512 512" enable-background="new 0 0 512 512" xml:space="preserve">
	<g>
		<path d="M416,160H96c-17.7,0-32-14.3-32-32v0c0-17.7,14.3-32,32-32h320c17.7,0,32,14.3,32,32v0
			C448,145.7,433.7,160,416,160z M448,256L448,256c0-17.7-14.3-32-32-32H96c-17.7,0-32,14.3-32,32v0c0,17.7,14.3,32,32,32h320
			C433.7,288,448,273.7,448,256z M448,384L448,384c0-17.7-14.3-32-32-32H96c-17.7,0-32,14.3-32,32v0c0,17.7,14.3,32,32,32h320
			C433.7,416,448,401.7,448,384z"/>
	</g>
</svg>
