<?xml version="1.0" encoding="utf-8"?>
<!-- Generator: Adobe Illustrator 19.1.0, SVG Export Plug-In . SVG Version: 6.00 Build 0)  -->
<svg version="1.1" xmlns="http://www.w3.org/2000/svg" xmlns:xlink="http://www.w3.org/1999/xlink" x="0px" y="0px"
	 viewBox="0 0 512 512" enable-background="new 0 0 512 512" xml:space="preserve">
	<g>
		<path d="M248.1,372.4c-18.8,0-32.9-9.9-32.9-33.8c0-49,13.5-85.8,65.7-106.2c24.7-9.3,37-25.7,37-49
			c0-28.6-27-51.3-57.5-51.3c-36.4,0-59.3,18.7-76.9,38.5c-7,8.2-17.6,11.7-26.4,11.7c-21.1,0-34-15.8-34-34.4c0-7,3.5-16.3,8.2-22.2
			c24.7-30.9,71.6-61.8,129.1-61.8c67.5,0,128.6,50.8,128.6,119.6c0,54.8-34,90.4-83.4,110.9c-17.6,6.4-24.7,18.7-24.7,44.3
			C280.9,362.5,266.9,372.4,248.1,372.4z M249.2,401.6c21.1,0,38.7,16.3,38.7,39.1c0,21.6-17.6,39.1-38.7,39.1
			c-20.5,0-39.9-17.5-39.9-39.1C209.3,417.9,228.7,401.6,249.2,401.6z"/>
	</g>
</svg>
