<?xml version="1.0" encoding="utf-8"?>
<!-- Generator: Adobe Illustrator 19.1.0, SVG Export Plug-In . SVG Version: 6.00 Build 0)  -->
<svg version="1.1" xmlns="http://www.w3.org/2000/svg" xmlns:xlink="http://www.w3.org/1999/xlink" x="0px" y="0px"
	 viewBox="0 0 512 512" style="enable-background:new 0 0 512 512;" xml:space="preserve">
	<g>
		<path d="M403.2,409.9c43.5-39.8,70.8-97,70.8-160.6c0-120.2-97.5-217.7-217.7-217.7
			S38.6,129.1,38.6,249.3S136,467,256.3,467c40.8,0,79-11.2,111.7-30.8l68.9,69c8.5,8.5,22.3,8.5,30.8,0c8.5-8.5,8.5-22.3,0-30.8
			L403.2,409.9z M82.1,249.3c0-96.2,78-174.2,174.2-174.2s174.2,78,174.2,174.2s-78,174.2-174.2,174.2S82.1,345.5,82.1,249.3z"/>
	</g>
</svg>
