<?xml version="1.0" encoding="utf-8"?>
<!-- Generator: Adobe Illustrator 19.1.0, SVG Export Plug-In . SVG Version: 6.00 Build 0)  -->
<svg version="1.1" xmlns="http://www.w3.org/2000/svg" xmlns:xlink="http://www.w3.org/1999/xlink" x="0px" y="0px"
	 viewBox="0 0 512 512" enable-background="new 0 0 512 512" xml:space="preserve">
<g id="Frame" display="none">
	<g display="inline" opacity="0.2">
		<path fill="#231F20" d="M416,96c8.5,0,16.5,3.3,22.6,9.4c6.1,6.1,9.4,14.1,9.4,22.6v320c0,8.5-3.3,16.5-9.4,22.6
			c-6.1,6.1-14.1,9.4-22.6,9.4H96c-8.5,0-16.5-3.3-22.6-9.4c-6.1-6.1-9.4-14.1-9.4-22.6V128c0-8.5,3.3-16.5,9.4-22.6
			C79.5,99.3,87.5,96,96,96H416 M416,64H96c-35.2,0-64,28.8-64,64v320c0,35.2,28.8,64,64,64h320c35.2,0,64-28.8,64-64V128
			C480,92.8,451.2,64,416,64L416,64z"/>
	</g>
	<g display="inline" opacity="0.2">
		<path fill="#231F20" d="M256,96c106,0,192,86,192,192s-86,192-192,192S64,394,64,288S150,96,256,96 M256,64
			c-30.2,0-59.6,5.9-87.2,17.6c-26.7,11.3-50.6,27.4-71.2,48c-20.6,20.6-36.7,44.5-48,71.2C37.9,228.4,32,257.8,32,288
			s5.9,59.6,17.6,87.2c11.3,26.7,27.4,50.6,48,71.2c20.6,20.6,44.5,36.7,71.2,48c27.6,11.7,57,17.6,87.2,17.6s59.6-5.9,87.2-17.6
			c26.7-11.3,50.6-27.4,71.2-48c20.6-20.6,36.7-44.5,48-71.2c11.7-27.6,17.6-57,17.6-87.2s-5.9-59.6-17.6-87.2
			c-11.3-26.7-27.4-50.6-48-71.2c-20.6-20.6-44.5-36.7-71.2-48C315.6,69.9,286.2,64,256,64L256,64z"/>
	</g>
	<g display="inline" opacity="0.3">
		<path fill="#231F20" d="M256,120c44.9,0,87.1,17.5,118.8,49.2C406.5,200.9,424,243.1,424,288s-17.5,87.1-49.2,118.8
			C343.1,438.5,300.9,456,256,456s-87.1-17.5-118.8-49.2C105.5,375.1,88,332.9,88,288s17.5-87.1,49.2-118.8
			C168.9,137.5,211.1,120,256,120 M256,96C150,96,64,182,64,288s86,192,192,192s192-86,192-192S362,96,256,96L256,96z"/>
	</g>
	<path display="inline" fill="#231F20" d="M416,64c8.5,0,16.5,3.3,22.6,9.4c6.1,6.1,9.4,14.1,9.4,22.6v352c0,8.5-3.3,16.5-9.4,22.6
		c-6.1,6.1-14.1,9.4-22.6,9.4H96c-8.5,0-16.5-3.3-22.6-9.4c-6.1-6.1-9.4-14.1-9.4-22.6V96c0-8.5,3.3-16.5,9.4-22.6
		C79.5,67.3,87.5,64,96,64H416 M416,32H96c-35.2,0-64,28.8-64,64v352c0,35.2,28.8,64,64,64h320c35.2,0,64-28.8,64-64V96
		C480,60.8,451.2,32,416,32L416,32z"/>
</g>
<g id="FRAME_SQUARE" display="none">
	<g display="inline" opacity="0.2">
		<path fill="#F26522" d="M416,96.7C416,96.7,416,96.7,416,96.7L416,448c0,0,0,0-0.1,0.1L96,448c0,0,0,0-0.1-0.1l0-351.2
			c0,0,0,0,0.1-0.1H416 M416,64.7H96c-17.6,0-32,14.4-32,32V448c0,17.6,14.4,32,32,32h320c17.6,0,32-14.4,32-32V96.7
			C448,79.1,433.6,64.7,416,64.7L416,64.7z"/>
	</g>
	<path display="inline" fill="#231F20" d="M416,64c8.5,0,16.5,3.3,22.6,9.4c6.1,6.1,9.4,14.1,9.4,22.6v352c0,8.5-3.3,16.5-9.4,22.6
		c-6.1,6.1-14.1,9.4-22.6,9.4H96c-8.5,0-16.5-3.3-22.6-9.4c-6.1-6.1-9.4-14.1-9.4-22.6V96c0-8.5,3.3-16.5,9.4-22.6
		C79.5,67.3,87.5,64,96,64H416 M416,32H96c-35.2,0-64,28.8-64,64v352c0,35.2,28.8,64,64,64h320c35.2,0,64-28.8,64-64V96
		C480,60.8,451.2,32,416,32L416,32z"/>
</g>
<g id="Holiday_type_-_Family">
	<g id="Plaine_39_" display="none">
		<g display="inline">
			<ellipse fill="#231F20" cx="181.7" cy="189.7" rx="24.1" ry="24.6"/>
			<path fill="#231F20" d="M222.5,219.9l-18.9-5.4c-5.5,5.9-13.3,9.5-21.9,9.5c-8.7,0-16.5-3.7-22-9.7l-19.4,5.6
				c-5.4,1.5-9.1,6.5-9.1,12.1v76.5c0,4.6,3.7,8.4,8.4,8.4c4.6,0,8.4-3.7,8.4-8.4v-53.8c0-2.5,2-4.4,4.4-4.4s4.4,2,4.4,4.4v151.1
				c0,5.6,4.6,10.2,10.2,10.2c5.6,0,10.2-4.6,10.2-10.2v-79.4h8.4v79.4c0,5.6,4.6,10.2,10.2,10.2c5.6,0,10.2-4.6,10.2-10.2V254.7
				c0-2.5,2-4.4,4.4-4.4s4.4,2,4.4,4.4v53.8c0,4.6,3.7,8.4,8.4,8.4c4.6,0,8.4-3.7,8.4-8.4V232C231.6,226.4,227.9,221.5,222.5,219.9z
				"/>
		</g>
		<g display="inline">
			<ellipse fill="#231F20" cx="307.2" cy="189.7" rx="24.1" ry="24.6"/>
			<path fill="#231F20" d="M306.9,204.6"/>
			<path fill="#231F20" d="M375.5,299.9l-29.8-67.1c-0.2-0.5-0.5-1-0.8-1.5l-2.8-4.5c-1.2-1.9-2.9-3.4-5-4.4l-10.9-5.2
				c-5.2,4.3-11.8,6.8-19,6.8c-7.3,0-14-2.6-19.3-7l-11.3,5.4c-2,1-3.8,2.5-5,4.4l-2.8,4.5c-0.3,0.5-0.6,1-0.8,1.5l-29.8,67.1
				c-1.9,4.4,0.3,9.4,4.7,11.1c4.2,1.6,9-0.6,10.7-4.8l24.6-57.4c3,3.1,4.7,7.2,4.8,11.5l0.4,9.6c0,1-0.1,2.1-0.5,3.1l-23.7,65.5
				c-1.3,5.3,2.7,10.4,8.1,10.4h14.8c0,0,0,0,0,0v56.7c0,5.6,4.6,10.2,10.2,10.2h0c5.6,0,10.2-4.6,10.2-10.2v-56.7h8.4v56.4
				c0,5.5,4.3,10.2,9.8,10.4c5.8,0.2,10.6-4.4,10.6-10.2v-56.7c0,0,0,0,0,0h14.8c5.5,0,9.5-5.1,8.1-10.4l-23.7-65.5
				c-0.4-1-0.5-2-0.5-3.1l0.4-9.6c0.2-4.3,1.9-8.4,4.8-11.5l24.6,57.4c1.8,4.2,6.5,6.4,10.7,4.8
				C375.3,309.3,377.4,304.3,375.5,299.9z"/>
		</g>
		<g display="inline">
			<path fill="#231F20" d="M443.4,298.1c0,8.1-6.5,14.6-14.6,14.6c-8.1,0-14.6-6.5-14.6-14.6c0-8.1,6.5-14.6,14.6-14.6
				C436.9,283.5,443.4,290,443.4,298.1"/>
			<path fill="#231F20" d="M476.4,289.1c2.8,3.4,2.4,8.4-0.9,11.2l-28.4,24.1V408c0,4.4-3.6,8-8,8c-4.3,0-7.8-3.4-7.9-7.7v-44.8
				c0-1.7-1.4-3-3-3c-1.7,0-3,1.4-3,3v46.4v0c-0.8,3.5-4,6.1-7.7,6.1c-4.4,0-8-3.6-8-8v-82.7c-0.2-0.2-0.4-0.3-0.6-0.5l-28-24.6
				c-3.3-2.9-3.6-7.9-0.7-11.2c2.9-3.3,7.9-3.6,11.2-0.7l24.1,21.2c3.2,3.8,8.1,6.3,13.5,6.3c7.1,0,13.2-4.2,16-10.3l20.3-17.3
				C468.5,285.3,473.5,285.8,476.4,289.1"/>
		</g>
		<g display="inline">
			<path fill="#231F20" d="M124.7,352.5c-1.6,1.5-3.5,2.2-5.5,2.2c-2.1,0-4.2-0.8-5.8-2.5l-15-15.8v3h0l4.8,29.3
				c0.5,2.9-1.8,5.6-4.8,5.6h0v33.4c0,4.2-3.2,7.9-7.4,8.2c-4.6,0.3-8.4-3.2-8.5-7.7v-33.9h-6.1v35.5l0,0c-0.9,3.8-4.5,6.6-8.7,6.1
				c-4-0.5-7-4.1-7-8.2l0-33.4h0c-3,0-5.3-2.7-4.8-5.6l4.8-29.3h0v-3.1l-13,15.1c-2.9,3.3-7.9,3.7-11.2,0.8
				c-3.3-2.9-3.7-7.9-0.8-11.2l23.7-27.4c1.5-1.7,3.7-2.7,6-2.7h2.7c3.2,3,7.4,4.8,12,4.8c4.7,0,8.9-1.8,12-4.8h0.4
				c2.2,0,4.3,0.9,5.8,2.5l26.6,27.9C128,344.4,127.9,349.5,124.7,352.5"/>
			<path fill="#231F20" d="M47.4,308c-0.9-2.5,10.1-2.2,8.2-15.1c-0.8-5.7,3.4-8.4,7.6-7.4c3.2,0.7,4.3,3.5,4.6,4.9
				c2.6-4.1,7.1-6.8,12.3-6.8c5.2,0,9.8,2.7,12.3,6.8c0.3-1.4,1.5-4.2,4.7-4.9c4.2-1,8.4,1.7,7.6,7.4c-1.9,12.9,9.1,12.6,8.2,15.1
				c-1.2,3.4-12.4,3-18.2-9.5c-0.2,7.9-6.6,14.3-14.6,14.3c-7.9,0-14.4-6.3-14.6-14.2C59.8,311,48.6,311.4,47.4,308"/>
		</g>
	</g>
	<g id="Framed_21_" display="none">
		<path display="inline" fill="#231F20" d="M416,64c8.5,0,16.5,3.3,22.6,9.4c6.1,6.1,9.4,14.1,9.4,22.6v352c0,8.5-3.3,16.5-9.4,22.6
			c-6.1,6.1-14.1,9.4-22.6,9.4H96c-8.5,0-16.5-3.3-22.6-9.4c-6.1-6.1-9.4-14.1-9.4-22.6V96c0-8.5,3.3-16.5,9.4-22.6
			C79.5,67.3,87.5,64,96,64H416 M416,32H96c-35.2,0-64,28.8-64,64v352c0,35.2,28.8,64,64,64h320c35.2,0,64-28.8,64-64V96
			C480,60.8,451.2,32,416,32L416,32z"/>
		<g id="Plaine_41_" display="inline">
			<g>
				<ellipse fill="#231F20" cx="200.7" cy="196.9" rx="18" ry="18.3"/>
				<path fill="#231F20" d="M231,219.4l-14-4.1c-4.1,4.4-9.9,7.1-16.3,7.1c-6.5,0-12.3-2.8-16.4-7.2l-14.4,4.2c-4,1.1-6.8,4.8-6.8,9
					v57c0,3.4,2.8,6.2,6.2,6.2c3.4,0,6.2-2.8,6.2-6.2v-40.1c0-1.8,1.5-3.3,3.3-3.3c1.8,0,3.3,1.5,3.3,3.3v112.6
					c0,4.2,3.4,7.6,7.6,7.6s7.6-3.4,7.6-7.6v-59.2h6.2v59.2c0,4.2,3.4,7.6,7.6,7.6s7.6-3.4,7.6-7.6V245.3c0-1.8,1.5-3.3,3.3-3.3
					c1.8,0,3.3,1.5,3.3,3.3v40.1c0,3.4,2.8,6.2,6.2,6.2c3.4,0,6.2-2.8,6.2-6.2v-57C237.8,224.2,235,220.6,231,219.4z"/>
			</g>
			<g>
				<ellipse fill="#231F20" cx="294.1" cy="196.9" rx="18" ry="18.3"/>
				<path fill="#231F20" d="M293.9,208"/>
				<path fill="#231F20" d="M345,279l-22.2-50c-0.2-0.4-0.4-0.8-0.6-1.1l-2.1-3.3c-0.9-1.4-2.2-2.6-3.7-3.3l-8.1-3.8
					c-3.9,3.2-8.8,5.1-14.2,5.1c-5.4,0-10.4-2-14.3-5.2l-8.4,4c-1.5,0.7-2.8,1.9-3.7,3.3l-2.1,3.3c-0.2,0.4-0.4,0.7-0.6,1.1
					l-22.2,50c-1.4,3.2,0.2,7,3.5,8.3c3.1,1.2,6.7-0.5,8-3.6l18.3-42.7c2.2,2.3,3.5,5.4,3.6,8.6l0.3,7.1c0,0.8-0.1,1.5-0.4,2.3
					l-17.6,48.8c-1,3.9,2,7.8,6.1,7.8h11.1c0,0,0,0,0,0v42.2c0,4.2,3.4,7.6,7.6,7.6l0,0c4.2,0,7.6-3.4,7.6-7.6v-42.2h6.2v42
					c0,4.1,3.2,7.6,7.3,7.8c4.3,0.2,7.9-3.3,7.9-7.6v-42.2c0,0,0,0,0,0h11.1c4.1,0,7.1-3.8,6.1-7.8L311.7,259
					c-0.3-0.7-0.4-1.5-0.4-2.3l0.3-7.1c0.1-3.2,1.4-6.3,3.6-8.6l18.3,42.7c1.3,3.1,4.8,4.7,8,3.6C344.9,286,346.4,282.2,345,279z"/>
			</g>
			<g>
				<path fill="#231F20" d="M395.6,277.6c0,6-4.9,10.9-10.9,10.9c-6,0-10.9-4.9-10.9-10.9c0-6,4.9-10.9,10.9-10.9
					C390.7,266.7,395.6,271.6,395.6,277.6"/>
				<path fill="#231F20" d="M420.2,270.9c2.1,2.5,1.8,6.2-0.7,8.4l-21.1,17.9v62.3c0,3.3-2.7,5.9-5.9,5.9c-3.2,0-5.8-2.6-5.9-5.8
					v-33.4c0-1.3-1-2.3-2.3-2.3c-1.3,0-2.3,1-2.3,2.3v34.6v0c-0.6,2.6-3,4.6-5.8,4.6c-3.3,0-5.9-2.6-5.9-5.9v-61.6
					c-0.2-0.1-0.3-0.2-0.5-0.3l-20.9-18.4c-2.5-2.2-2.7-5.9-0.5-8.4c2.2-2.5,5.9-2.7,8.4-0.5l18,15.8c2.4,2.9,6,4.7,10,4.7
					c5.3,0,9.8-3.1,11.9-7.7l15.1-12.9C414.3,268.1,418,268.4,420.2,270.9"/>
			</g>
			<g>
				<path fill="#231F20" d="M158.2,318.2c-1.2,1.1-2.6,1.6-4.1,1.6c-1.6,0-3.1-0.6-4.3-1.8l-11.2-11.7v2.2h0l3.5,21.8
					c0.4,2.2-1.3,4.2-3.6,4.2l0,0v24.9c0,3.1-2.4,5.9-5.5,6.1c-3.4,0.3-6.3-2.4-6.4-5.7v-25.2h-4.5v26.4l0,0
					c-0.7,2.8-3.4,4.9-6.5,4.5c-3-0.4-5.2-3-5.2-6.1l0-24.9h0c-2.2,0-3.9-2-3.6-4.2l3.6-21.8h0v-2.3l-9.7,11.2
					c-2.1,2.5-5.9,2.7-8.4,0.6c-2.5-2.1-2.7-5.9-0.6-8.4l17.6-20.4c1.1-1.3,2.8-2,4.5-2h2c2.3,2.2,5.5,3.6,9,3.6
					c3.5,0,6.6-1.4,9-3.6h0.3c1.6,0,3.2,0.7,4.3,1.8l19.8,20.8C160.6,312.2,160.5,315.9,158.2,318.2"/>
				<path fill="#231F20" d="M100.6,285c-0.7-1.9,7.5-1.7,6.1-11.3c-0.6-4.3,2.6-6.3,5.7-5.5c2.4,0.5,3.2,2.6,3.5,3.6
					c1.9-3,5.3-5.1,9.2-5.1c3.9,0,7.3,2,9.2,5.1c0.3-1,1.1-3.1,3.5-3.7c3.1-0.7,6.3,1.3,5.7,5.5c-1.4,9.6,6.8,9.4,6.1,11.3
					c-0.9,2.6-9.3,2.2-13.6-7.1c-0.1,5.9-4.9,10.6-10.9,10.6c-5.9,0-10.7-4.7-10.9-10.6C109.8,287.2,101.5,287.5,100.6,285"/>
			</g>
		</g>
	</g>
	<g id="Punched_18_" display="none">
		<path display="inline" fill="#231F20" d="M416,32H96c-35.2,0-64,28.8-64,64v352c0,35.2,28.8,64,64,64h320c35.2,0,64-28.8,64-64V96
			C480,60.8,451.2,32,416,32L416,32z"/>
		<g id="Plaine_40_" display="inline">
			<g>
				<ellipse fill="#FFFFFF" cx="200.7" cy="196.9" rx="18" ry="18.3"/>
				<path fill="#FFFFFF" d="M231,219.4l-14-4.1c-4.1,4.4-9.9,7.1-16.3,7.1c-6.5,0-12.3-2.8-16.4-7.2l-14.4,4.2c-4,1.1-6.8,4.8-6.8,9
					v57c0,3.4,2.8,6.2,6.2,6.2c3.4,0,6.2-2.8,6.2-6.2v-40.1c0-1.8,1.5-3.3,3.3-3.3c1.8,0,3.3,1.5,3.3,3.3v112.6
					c0,4.2,3.4,7.6,7.6,7.6s7.6-3.4,7.6-7.6v-59.2h6.2v59.2c0,4.2,3.4,7.6,7.6,7.6s7.6-3.4,7.6-7.6V245.3c0-1.8,1.5-3.3,3.3-3.3
					c1.8,0,3.3,1.5,3.3,3.3v40.1c0,3.4,2.8,6.2,6.2,6.2c3.4,0,6.2-2.8,6.2-6.2v-57C237.8,224.2,235,220.6,231,219.4z"/>
			</g>
			<g>
				<ellipse fill="#FFFFFF" cx="294.1" cy="196.9" rx="18" ry="18.3"/>
				<path fill="#FFFFFF" d="M293.9,208"/>
				<path fill="#FFFFFF" d="M345,279l-22.2-50c-0.2-0.4-0.4-0.8-0.6-1.1l-2.1-3.3c-0.9-1.4-2.2-2.6-3.7-3.3l-8.1-3.8
					c-3.9,3.2-8.8,5.1-14.2,5.1c-5.4,0-10.4-2-14.3-5.2l-8.4,4c-1.5,0.7-2.8,1.9-3.7,3.3l-2.1,3.3c-0.2,0.4-0.4,0.7-0.6,1.1
					l-22.2,50c-1.4,3.2,0.2,7,3.5,8.3c3.1,1.2,6.7-0.5,8-3.6l18.3-42.7c2.2,2.3,3.5,5.4,3.6,8.6l0.3,7.1c0,0.8-0.1,1.5-0.4,2.3
					l-17.6,48.8c-1,3.9,2,7.8,6.1,7.8h11.1c0,0,0,0,0,0v42.2c0,4.2,3.4,7.6,7.6,7.6l0,0c4.2,0,7.6-3.4,7.6-7.6v-42.2h6.2v42
					c0,4.1,3.2,7.6,7.3,7.8c4.3,0.2,7.9-3.3,7.9-7.6v-42.2c0,0,0,0,0,0h11.1c4.1,0,7.1-3.8,6.1-7.8L311.7,259
					c-0.3-0.7-0.4-1.5-0.4-2.3l0.3-7.1c0.1-3.2,1.4-6.3,3.6-8.6l18.3,42.7c1.3,3.1,4.8,4.7,8,3.6C344.9,286,346.4,282.2,345,279z"/>
			</g>
			<g>
				<path fill="#FFFFFF" d="M395.6,277.6c0,6-4.9,10.9-10.9,10.9c-6,0-10.9-4.9-10.9-10.9c0-6,4.9-10.9,10.9-10.9
					C390.7,266.7,395.6,271.6,395.6,277.6"/>
				<path fill="#FFFFFF" d="M420.2,270.9c2.1,2.5,1.8,6.2-0.7,8.4l-21.1,17.9v62.3c0,3.3-2.7,5.9-5.9,5.9c-3.2,0-5.8-2.6-5.9-5.8
					v-33.4c0-1.3-1-2.3-2.3-2.3c-1.3,0-2.3,1-2.3,2.3v34.6v0c-0.6,2.6-3,4.6-5.8,4.6c-3.3,0-5.9-2.6-5.9-5.9v-61.6
					c-0.2-0.1-0.3-0.2-0.5-0.3l-20.9-18.4c-2.5-2.2-2.7-5.9-0.5-8.4c2.2-2.5,5.9-2.7,8.4-0.5l18,15.8c2.4,2.9,6,4.7,10,4.7
					c5.3,0,9.8-3.1,11.9-7.7l15.1-12.9C414.3,268.1,418,268.4,420.2,270.9"/>
			</g>
			<g>
				<path fill="#FFFFFF" d="M158.2,318.2c-1.2,1.1-2.6,1.6-4.1,1.6c-1.6,0-3.1-0.6-4.3-1.8l-11.2-11.7v2.2h0l3.5,21.8
					c0.4,2.2-1.3,4.2-3.6,4.2l0,0v24.9c0,3.1-2.4,5.9-5.5,6.1c-3.4,0.3-6.3-2.4-6.4-5.7v-25.2h-4.5v26.4l0,0
					c-0.7,2.8-3.4,4.9-6.5,4.5c-3-0.4-5.2-3-5.2-6.1l0-24.9h0c-2.2,0-3.9-2-3.6-4.2l3.6-21.8h0v-2.3l-9.7,11.2
					c-2.1,2.5-5.9,2.7-8.4,0.6c-2.5-2.1-2.7-5.9-0.6-8.4l17.6-20.4c1.1-1.3,2.8-2,4.5-2h2c2.3,2.2,5.5,3.6,9,3.6
					c3.5,0,6.6-1.4,9-3.6h0.3c1.6,0,3.2,0.7,4.3,1.8l19.8,20.8C160.6,312.2,160.5,315.9,158.2,318.2"/>
				<path fill="#FFFFFF" d="M100.6,285c-0.7-1.9,7.5-1.7,6.1-11.3c-0.6-4.3,2.6-6.3,5.7-5.5c2.4,0.5,3.2,2.6,3.5,3.6
					c1.9-3,5.3-5.1,9.2-5.1c3.9,0,7.3,2,9.2,5.1c0.3-1,1.1-3.1,3.5-3.7c3.1-0.7,6.3,1.3,5.7,5.5c-1.4,9.6,6.8,9.4,6.1,11.3
					c-0.9,2.6-9.3,2.2-13.6-7.1c-0.1,5.9-4.9,10.6-10.9,10.6c-5.9,0-10.7-4.7-10.9-10.6C109.8,287.2,101.5,287.5,100.6,285"/>
			</g>
		</g>
	</g>
	<g id="Plain_1_">
		<path fill="#231F20" d="M423.4,251c11.2,0,20.3-9.1,20.3-20.4s-9.1-20.4-20.3-20.4c-11.3,0-20.4,9.1-20.4,20.4
			C403.1,241.9,412.2,251,423.4,251"/>
		<path fill="#231F20" d="M283,138c16,0,29-13,29-29c0-16-13-29-29-29c-16,0-29,13-29,29C254,125,267,138,283,138"/>
		<path fill="#231F20" d="M120.3,138.9c16.3,0,29.5-13.1,29.5-29.2c0-16.1-13.2-29.2-29.5-29.2c-16.3,0-29.4,13.1-29.4,29.2
			C90.9,125.8,104,138.9,120.3,138.9"/>
		<path fill="#231F20" d="M395.8,426.7c0,7,6.1,12.6,13.2,11.9c6.2-0.6,10.8-6,10.8-12.2v-71.1h9.3v71.4c0,6.6,5.4,11.9,12,11.9
			s12-5.4,12-11.9V293.2l0,0c5.1,0,9.2,4.1,9.2,9.2v36c0,5.1,4.3,9.2,9.4,8.9c4.7-0.3,8.3-4.4,8.3-9.1l0-51.3
			c0-14.4-12.7-26.1-27.1-26.1c0,0-55.3,0-55.5,0.1l-17.9-1.7l-23-80.1c-9.3-32.3-36.3-31.3-36.3-31.3h-74.5c0,0-27-1-36.3,31.3
			l-12,41.9l-12-41.9c-9.3-32.3-36.3-31.3-36.3-31.3H91.5c0,0-27-1-36.3,31.3L32,260c-2.2,7.5,1.5,14.6,8.1,16.5
			c6.6,1.9,13.8-2.7,15.6-8.8l19.5-68.2c1.8-6.3,7.5-10.6,14-10.6h0l-33,136.4h29.1v96.9c0,8,6.4,14.5,14.4,14.5
			c8,0,14.5-6.5,14.5-14.5v-96.9h12.2v96.9c0,8,6.4,14.5,14.5,14.5s14.5-6.5,14.5-14.5v-96.9h28.7l-32.7-136.4h0
			c6.5,0,12.2,4.3,14,10.6l19.5,68.2c1.5,5.2,6.3,9.5,12,9c5.7,0.5,11.5-3.8,12.9-9l19.8-69c1.7-5.8,6.9-9.8,13-9.8l0,0v230.5
			c0,9.4,7.7,17,17.1,17c9.4,0,17-7.6,17-17V288.3h12.6v131.1c0,9.4,7.6,17,17,17c9.4,0,17.1-7.6,17.1-17V188.9h0.8
			c6.1,0,11.4,4.1,13,9.9l18.2,66.2c1.3,4.6,6.1,9,11.1,10.6l29.2,8.2L395.8,426.7L395.8,426.7z"/>
	</g>
	<g id="Framed" display="none">
		<path display="inline" fill="#231F20" d="M416,64c8.5,0,16.5,3.3,22.6,9.4c6.1,6.1,9.4,14.1,9.4,22.6v352c0,8.5-3.3,16.5-9.4,22.6
			c-6.1,6.1-14.1,9.4-22.6,9.4H96c-8.5,0-16.5-3.3-22.6-9.4c-6.1-6.1-9.4-14.1-9.4-22.6V96c0-8.5,3.3-16.5,9.4-22.6
			C79.5,67.3,87.5,64,96,64H416 M416,32H96c-35.2,0-64,28.8-64,64v352c0,35.2,28.8,64,64,64h320c35.2,0,64-28.8,64-64V96
			C480,60.8,451.2,32,416,32L416,32z"/>
		<g id="Plain_2_" display="inline">
			<path fill="#231F20" d="M374.5,265.9c8,0,14.5-6.5,14.5-14.5c0-8-6.5-14.5-14.5-14.5c-8,0-14.5,6.5-14.5,14.5
				C360,259.4,366.5,265.9,374.5,265.9"/>
			<path fill="#231F20" d="M271.1,186.2c11.4,0,20.6-9.2,20.6-20.6c0-11.4-9.2-20.6-20.6-20.6c-11.4,0-20.6,9.2-20.6,20.6
				C250.5,176.9,259.7,186.2,271.1,186.2"/>
			<path fill="#231F20" d="M159.2,186.3c11.5,0,20.9-9.3,20.9-20.8c0-11.5-9.4-20.8-20.9-20.8c-11.5,0-20.9,9.3-20.9,20.8
				C138.3,177,147.7,186.3,159.2,186.3"/>
			<path fill="#231F20" d="M354.9,390.7c0,4.9,4.3,8.9,9.4,8.4c4.4-0.4,7.6-4.3,7.6-8.7V340h6.6v50.7c0,4.7,3.8,8.5,8.5,8.5
				c4.7,0,8.5-3.8,8.5-8.5v-94.8l0,0c3.6,0,6.6,2.9,6.6,6.6v25.6c0,3.6,3,6.5,6.7,6.3c3.3-0.2,5.9-3.1,5.9-6.5l0-36.4
				c0-10.2-9-18.5-19.2-18.5c0,0-39.2,0-39.4,0l-12.7-1.2L327,214.9c-6.6-22.9-25.8-22.2-25.8-22.2h-52.9c0,0-19.2-0.7-25.8,22.2
				l-8.5,29.8l-8.5-29.8c-6.6-22.9-25.8-22.2-25.8-22.2h-40.9c0,0-19.2-0.7-25.8,22.2l-16.5,57.4c-1.6,5.3,1,10.4,5.7,11.7
				c4.7,1.3,9.8-1.9,11.1-6.2l13.9-48.4c1.3-4.4,5.3-7.5,10-7.5h0l-23.4,96.9h20.7v68.8c0,5.7,4.6,10.3,10.2,10.3
				c5.7,0,10.3-4.6,10.3-10.3v-68.8h8.7v68.8c0,5.7,4.6,10.3,10.3,10.3s10.3-4.6,10.3-10.3v-68.8h20.4l-23.2-96.9l0,0
				c4.6,0,8.7,3.1,10,7.5l13.9,48.4c1.1,3.7,4.5,6.7,8.5,6.4c4,0.4,8.1-2.7,9.2-6.4l14-49c1.2-4.1,4.9-6.9,9.2-6.9l0,0v163.7
				c0,6.7,5.5,12.1,12.2,12.1c6.7,0,12.1-5.4,12.1-12.1v-93.1h8.9v93.1c0,6.7,5.4,12.1,12.1,12.1s12.1-5.4,12.1-12.1V221.8h0.5
				c4.3,0,8.1,2.9,9.2,7l12.9,47.1c0.9,3.3,4.3,6.4,7.9,7.5l20.8,5.8L354.9,390.7L354.9,390.7z"/>
		</g>
	</g>
	<g id="Punched" display="none">
		<g display="inline">
			<path fill="#231F20" d="M416,32H96c-35.2,0-64,28.8-64,64v352c0,35.2,28.8,64,64,64h320c35.2,0,64-28.8,64-64V96
				C480,60.8,451.2,32,416,32z M374.5,237c8,0,14.5,6.5,14.5,14.5s-6.5,14.5-14.5,14.5c-8,0-14.5-6.5-14.5-14.5
				C360,243.4,366.5,237,374.5,237z M271.1,144.9c11.4,0,20.6,9.2,20.6,20.6c0,11.4-9.2,20.6-20.6,20.6c-11.4,0-20.6-9.2-20.6-20.6
				C250.5,154.2,259.7,144.9,271.1,144.9z M159.2,144.8c11.5,0,20.9,9.3,20.9,20.8c0,11.5-9.4,20.8-20.9,20.8
				c-11.5,0-20.9-9.3-20.9-20.8C138.3,154.1,147.7,144.8,159.2,144.8z M414.7,327.9c0,3.3-2.5,6.3-5.9,6.5c-3.7,0.2-6.7-2.7-6.7-6.3
				v-25.6c0-3.6-2.9-6.6-6.6-6.6v94.8c0,4.7-3.8,8.5-8.5,8.5s-8.5-3.8-8.5-8.5V340h-6.6l0,50.5c0,4.4-3.3,8.3-7.6,8.7
				c-5.1,0.5-9.4-3.5-9.4-8.4h0V289.2l-20.8-5.8c-3.6-1.1-7-4.2-7.9-7.5l-12.9-47.1c-1.1-4.2-4.9-7-9.2-7h-0.5v163.7
				c0,6.7-5.5,12.1-12.1,12.1c-6.7,0-12.1-5.4-12.1-12.1v-93.1h-8.9v93.1c0,6.7-5.4,12.1-12.1,12.1c-6.7,0-12.2-5.4-12.2-12.1V221.8
				c-4.3,0-8,2.8-9.2,6.9l-14,49c-1,3.7-5.2,6.7-9.2,6.4c-4,0.3-7.4-2.7-8.5-6.4l-13.9-48.4c-1.3-4.4-5.3-7.5-10-7.5h0l23.2,96.9
				h-20.4v68.8c0,5.7-4.6,10.3-10.3,10.3c-5.7,0-10.3-4.6-10.3-10.3v-68.8h-8.7v68.8c0,5.7-4.6,10.3-10.3,10.3
				c-5.7,0-10.2-4.6-10.2-10.3v-68.8h-20.7l23.4-96.9h0c-4.6,0-8.7,3.1-10,7.5l-13.9,48.4c-1.2,4.3-6.4,7.5-11.1,6.2
				c-4.7-1.4-7.3-6.4-5.7-11.7l16.5-57.4c6.6-22.9,25.8-22.2,25.8-22.2h40.9c0,0,19.2-0.7,25.8,22.2l8.5,29.8l8.5-29.8
				c6.6-22.9,25.8-22.2,25.8-22.2h52.9c0,0,19.2-0.7,25.8,22.2l16.3,56.9l12.7,1.2c0.2,0,39.4,0,39.4,0c10.2,0,19.2,8.3,19.2,18.5
				V327.9z"/>
		</g>
	</g>
</g>
<g id="Guide_Area" display="none">
	<polygon display="inline" opacity="0.2" fill="#ED1C24" points="480,0 32,0 0,0 0,32 0,512 32,512 32,32 480,32 480,512 512,512 
		512,32 512,0 	"/>
	<text transform="matrix(1 0 0 1 430 480.0001)" display="inline" font-family="'easyJetRoundedBook'" font-size="512px"> TtpPyYLlJj</text>
	<path display="inline" opacity="0.2" fill="#FBB040" d="M448,32H64H35h-3v480h0.6H64h384h31.6h0.4V64V32H448z M64,480V64h384v416
		H64z"/>
</g>
</svg>
