<?xml version="1.0" encoding="UTF-8"?><!DOCTYPE svg PUBLIC "-//W3C//DTD SVG 1.1//EN" "http://www.w3.org/Graphics/SVG/1.1/DTD/svg11.dtd"><svg xmlns="http://www.w3.org/2000/svg"><symbol id="i-burger" viewBox="0 0 512 512"><path d="M416 160H96c-17.7 0-32-14.3-32-32s14.3-32 32-32h320c17.7 0 32 14.3 32 32s-14.3 32-32 32zm32 96c0-17.7-14.3-32-32-32H96c-17.7 0-32 14.3-32 32s14.3 32 32 32h320c17.7 0 32-14.3 32-32zm0 128c0-17.7-14.3-32-32-32H96c-17.7 0-32 14.3-32 32s14.3 32 32 32h320c17.7 0 32-14.3 32-32z"/></symbol><symbol id="i-circle-outline" viewBox="0 0 512 512"><path d="M256 32C132.3 32 32 132.3 32 256s100.3 224 224 224 224-100.3 224-224S379.7 32 256 32zm0 416c-106 0-192-86-192-192S150 64 256 64s192 86 192 192-86 192-192 192z"/></symbol><symbol id="i-circle-solid" viewBox="0 0 512 512"><circle cx="256" cy="256" r="224"/></symbol><symbol id="i-exclamation" viewBox="0 0 512 512"><path fill="red" d="M285.4 342.5c-1.2 16.5-12.9 29.4-29.4 29.4s-28.2-12.9-29.4-29.4l-12.9-235C212.5 84 232.5 64 256 64c22.3 0 43.5 20 42.3 43.5l-12.9 235zm-27.6 58.8c21.2 0 38.8 16.5 38.8 39.4 0 21.7-17.6 39.4-38.8 39.4-21.2 0-40-17.6-40-39.4 0-23 18.8-39.4 40-39.4z"/></symbol><symbol id="i-menu" viewBox="0 0 459 459"><path fill="#fff" d="M0 382.5h459v-51H0v51zM0 255h459v-51H0v51zM0 76.5v51h459v-51H0z"/></symbol><symbol id="i-minus" viewBox="0 0 512 512"><path d="M383.9 239H128.1c-17.7 0-32.1 14.3-32.1 32s14.4 32 32.1 32h255.8c17.7 0 32.1-14.3 32.1-32s-14.4-32-32.1-32z"/></symbol><symbol id="i-plus" viewBox="-164 42.3 512 512"><path d="M219.9 281.3H124v-95.9c0-17.7-14.3-32.1-32-32.1s-32 14.4-32 32.1v95.9h-95.9c-17.7 0-32.1 14.3-32.1 32s14.4 32 32.1 32H60v95.9c0 17.7 14.3 32.1 32 32.1s32-14.4 32-32.1v-95.9h95.9c17.7 0 32.1-14.3 32.1-32s-14.4-32-32.1-32z"/></symbol><symbol id="i-question-mark" viewBox="0 0 512 512"><path d="M248.1 372.4c-18.8 0-32.9-9.9-32.9-33.8 0-49 13.5-85.8 65.7-106.2 24.7-9.3 37-25.7 37-49 0-28.6-27-51.3-57.5-51.3-36.4 0-59.3 18.7-76.9 38.5-7 8.2-17.6 11.7-26.4 11.7-21.1 0-34-15.8-34-34.4 0-7 3.5-16.3 8.2-22.2 24.7-30.9 71.6-61.8 129.1-61.8 67.5 0 128.6 50.8 128.6 119.6 0 54.8-34 90.4-83.4 110.9-17.6 6.4-24.7 18.7-24.7 44.3 0 23.8-14 33.7-32.8 33.7zm1.1 29.2c21.1 0 38.7 16.3 38.7 39.1 0 21.6-17.6 39.1-38.7 39.1-20.5 0-39.9-17.5-39.9-39.1 0-22.8 19.4-39.1 39.9-39.1z"/></symbol><symbol id="i-search" viewBox="0 0 512 512"><path d="M403.2 409.9c43.5-39.8 70.8-97 70.8-160.6 0-120.2-97.5-217.7-217.7-217.7S38.6 129.1 38.6 249.3 136 467 256.3 467c40.8 0 79-11.2 111.7-30.8l68.9 69c8.5 8.5 22.3 8.5 30.8 0s8.5-22.3 0-30.8l-64.5-64.5zM82.1 249.3c0-96.2 78-174.2 174.2-174.2s174.2 78 174.2 174.2-78 174.2-174.2 174.2-174.2-78-174.2-174.2z"/></symbol><symbol id="i-tick-green" viewBox="0 0 512 512"><path fill="#0f9d58" opacity=".5" d="M477.3 172.1L214.2 439.4c-10.1 10.3-26.6 10.3-36.7 0L34.3 293.9c-3.3-3.4-3.3-8.8 0-12.2l61.3-62.3c3.3-3.4 8.7-3.4 12 0l88.3 89.6L404 97.7c3.3-3.4 8.7-3.4 12 0l61.3 62.3c3.4 3.3 3.4 8.8 0 12.1z"/></symbol><symbol id="i-tick" viewBox="0 0 512 512"><path d="M477.3 172.1L214.2 439.4c-10.1 10.3-26.6 10.3-36.7 0L34.3 293.9c-3.3-3.4-3.3-8.8 0-12.2l61.3-62.3c3.3-3.4 8.7-3.4 12 0l88.3 89.6L404 97.7c3.3-3.4 8.7-3.4 12 0l61.3 62.3c3.4 3.3 3.4 8.8 0 12.1z"/></symbol></svg>